<svg width="36" height="14" viewBox="0 0 36 14" fill="none" xmlns="http://www.w3.org/2000/svg">
<path d="M6.23456 13.4115C4.21694 13.4115 2.71998 12.8713 1.7437 11.7909C0.767433 10.6975 0.279297 9.05085 0.279297 6.85098C0.279297 4.62508 0.754415 2.95891 1.70465 1.85247C2.65489 0.74603 4.16486 0.19281 6.23456 0.19281C8.27823 0.19281 9.77516 0.74603 10.7254 1.85247C11.6887 2.95891 12.1703 4.62508 12.1703 6.85098C12.1703 9.05085 11.6822 10.6975 10.7059 11.7909C9.72961 12.8713 8.23918 13.4115 6.23456 13.4115ZM6.23456 11.6738C7.41911 11.6738 8.27823 11.3028 8.81191 10.5608C9.35863 9.81884 9.63198 8.58224 9.63198 6.85098C9.63198 5.08066 9.35863 3.81804 8.81191 3.06305C8.27823 2.30806 7.41911 1.93057 6.23456 1.93057C5.42752 1.93057 4.77665 2.09328 4.28201 2.41871C3.78738 2.73111 3.41639 3.2518 3.16906 3.98074C2.93476 4.69668 2.8176 5.65343 2.8176 6.85098C2.8176 8.59524 3.08446 9.83836 3.61815 10.5803C4.16486 11.3093 5.03701 11.6738 6.23456 11.6738ZM13.2263 11.4199H13.734C14.0074 11.4199 14.2026 11.3613 14.3198 11.2442C14.4369 11.114 14.4955 10.9188 14.4955 10.6584V6.16759C14.4955 5.92026 14.4369 5.73803 14.3198 5.62088C14.2156 5.50372 14.0334 5.44515 13.7731 5.44515H13.2263V3.74644H16.1356L16.2528 5.03511C16.6823 4.50143 17.1835 4.10439 17.7562 3.84406C18.342 3.58373 19.0319 3.45355 19.8259 3.45355C20.9194 3.45355 21.7199 3.73341 22.2276 4.29315C22.7352 4.83986 22.9891 5.6469 22.9891 6.7143V10.6975C22.9891 10.9448 23.0411 11.127 23.1453 11.2442C23.2624 11.3613 23.4512 11.4199 23.7115 11.4199H24.2192V13.1186H20.4312V6.73382C20.4312 6.16109 20.3141 5.75106 20.0798 5.50372C19.8455 5.24339 19.4615 5.11321 18.9278 5.11321C18.368 5.11321 17.9124 5.27592 17.561 5.60135C17.2226 5.91376 17.0533 6.35634 17.0533 6.92908V10.6975C17.0533 10.9448 17.1054 11.127 17.2095 11.2442C17.3267 11.3613 17.5154 11.4199 17.7758 11.4199H18.2834V13.1186H13.2263V11.4199ZM25.0865 11.4199H25.6332C25.9066 11.4199 26.0953 11.3613 26.1995 11.2442C26.3166 11.127 26.3752 10.9318 26.3752 10.6584V2.90684C26.3752 2.65952 26.3166 2.47728 26.1995 2.36013C26.0953 2.24298 25.9066 2.1844 25.6332 2.1844H25.0865V0.485692H31.9985C33.1051 0.485692 33.9642 0.778574 34.5759 1.36434C35.2007 1.9501 35.5131 2.78969 35.5131 3.88311C35.5131 4.4949 35.3569 5.04814 35.0445 5.54277C34.7452 6.03741 34.3157 6.42142 33.7558 6.69477C35.0704 7.20243 35.7279 8.16568 35.7279 9.58453C35.7279 10.6389 35.4091 11.4915 34.7711 12.1424C34.1463 12.7932 33.3003 13.1186 32.2328 13.1186H25.0865V11.4199ZM31.1004 5.89423C31.673 5.89423 32.1288 5.73803 32.4671 5.42562C32.8055 5.10019 32.9748 4.63158 32.9748 4.01979C32.9748 2.7962 32.3695 2.1844 31.1589 2.1844H28.933V5.89423H31.1004ZM31.4323 11.4199C31.9659 11.4199 32.389 11.2572 32.7014 10.9318C33.027 10.6064 33.1896 10.1312 33.1896 9.50643C33.1896 8.84257 33.0139 8.36746 32.6624 8.08108C32.3241 7.79469 31.8359 7.65152 31.198 7.65152H28.933V11.4199H31.4323Z" fill="white"/>
</svg>
