<svg width="128" height="48" viewBox="0 0 128 48" fill="none" xmlns="http://www.w3.org/2000/svg">
<g clip-path="url(#clip0_517_5)">
<path d="M22.1673 47.6854C14.9936 47.6854 9.67105 45.7647 6.19986 41.9233C2.72868 38.0355 0.993084 32.1808 0.993084 24.359C0.993084 16.4447 2.68239 10.5206 6.06102 6.58658C9.43964 2.65256 14.8084 0.685555 22.1673 0.685555C29.4337 0.685555 34.7561 2.65256 38.1348 6.58658C41.5596 10.5206 43.2721 16.4447 43.2721 24.359C43.2721 32.1808 41.5365 38.0355 38.0654 41.9233C34.5942 45.7647 29.2949 47.6854 22.1673 47.6854ZM22.1673 41.5067C26.3791 41.5067 29.4337 40.1877 31.3313 37.5496C33.2751 34.9115 34.2471 30.5147 34.2471 24.359C34.2471 18.0646 33.2751 13.5753 31.3313 10.8908C29.4337 8.20646 26.3791 6.86427 22.1673 6.86427C19.2978 6.86427 16.9836 7.4428 15.2249 8.59986C13.4662 9.71064 12.1472 11.562 11.2678 14.1538C10.4347 16.6993 10.0182 20.1011 10.0182 24.359C10.0182 30.5609 10.967 34.9809 12.8645 37.619C14.8084 40.2108 17.9094 41.5067 22.1673 41.5067ZM47.027 40.6042H48.832C49.8039 40.6042 50.4982 40.3959 50.9147 39.9794C51.3313 39.5165 51.5395 38.8223 51.5395 37.8967V21.9292C51.5395 21.0498 51.3313 20.4019 50.9147 19.9854C50.5445 19.5688 49.8965 19.3605 48.9708 19.3605H47.027V13.3207H57.3711L57.7877 17.9026C59.315 16.0051 61.0969 14.5934 63.1333 13.6678C65.216 12.7422 67.6689 12.2793 70.4922 12.2793C74.3799 12.2793 77.2263 13.2744 79.0313 15.2645C80.8363 17.2084 81.7388 20.0779 81.7388 23.8731V38.0355C81.7388 38.9149 81.924 39.5628 82.2942 39.9794C82.7108 40.3959 83.3819 40.6042 84.3075 40.6042H86.1125V46.6441H72.6443V23.9425C72.6443 21.9061 72.2278 20.4482 71.3947 19.5688C70.5616 18.6432 69.1963 18.1803 67.2987 18.1803C65.3085 18.1803 63.6887 18.7588 62.4391 19.9159C61.2357 21.0267 60.634 22.6004 60.634 24.6367V38.0355C60.634 38.9149 60.8192 39.5628 61.1894 39.9794C61.606 40.3959 62.2771 40.6042 63.2027 40.6042H65.0077V46.6441H47.027V40.6042ZM89.1965 40.6042H91.1403C92.1123 40.6042 92.7834 40.3959 93.1536 39.9794C93.5702 39.5628 93.7784 38.8686 93.7784 37.8967V10.3355C93.7784 9.45609 93.5702 8.80814 93.1536 8.39159C92.7834 7.97505 92.1123 7.76678 91.1403 7.76678H89.1965V1.72691H113.772C117.707 1.72691 120.761 2.76827 122.936 4.85098C125.158 6.93369 126.269 9.91891 126.269 13.8066C126.269 15.9819 125.713 17.949 124.603 19.7077C123.538 21.4664 122.011 22.8317 120.021 23.8037C124.695 25.6087 127.032 29.0335 127.032 34.0784C127.032 37.8273 125.899 40.8588 123.631 43.1729C121.409 45.487 118.401 46.6441 114.606 46.6441H89.1965V40.6042ZM110.579 20.9573C112.615 20.9573 114.236 20.4019 115.439 19.2911C116.642 18.134 117.244 16.4678 117.244 14.2926C117.244 9.94205 115.092 7.76678 110.787 7.76678H102.873V20.9573H110.579ZM111.759 40.6042C113.656 40.6042 115.161 40.0257 116.272 38.8686C117.429 37.7115 118.007 36.0222 118.007 33.8007C118.007 31.4403 117.383 29.751 116.133 28.7327C114.93 27.7145 113.194 27.2054 110.926 27.2054H102.873V40.6042H111.759Z" fill="black"/>
</g>
<defs>
<clipPath id="clip0_517_5">
<rect width="128" height="47.7288" fill="white"/>
</clipPath>
</defs>
</svg>
